<svg xmlns="http://www.w3.org/2000/svg" width="12" height="13" viewBox="0 0 12 13">
  <defs>
    <style>
      .cls-1 {
        fill: #c4cacf;
        fill-rule: evenodd;
      }
    </style>
  </defs>
  <path id="Friend_копия" data-name="Friend копия" class="cls-1" d="M6,12C3.2,12,1.005,10.975,1.005,9.812V9.377c0-1.411,1.439-1.891,2.773-1.96h0A2.807,2.807,0,0,0,6,8.394a2.818,2.818,0,0,0,2.225-.977h0c1.336,0.066,2.773.546,2.773,1.96V9.812C11,10.975,8.8,12,6,12ZM6,7.278c-1.342,0-2.434-1.409-2.434-3.141S4.656,1,6,1,8.432,2.405,8.432,4.137,7.34,7.278,6,7.278Z"/>
</svg>
